<svg width="317" height="90" viewBox="0 0 317 90" fill="none" xmlns="http://www.w3.org/2000/svg">
  <g clip-path="url(#clip0_161_3182)">
    <mask id="mask0_161_3182" style="mask-type:luminance" maskUnits="userSpaceOnUse" x="0" y="0" width="317"
      height="90">
      <path d="M316.364 0H0V90H316.364V0Z" fill="white" />
    </mask>
    <g mask="url(#mask0_161_3182)">
      <path
        d="M106.352 20.46V0C79.4313 0 57.6062 20.15 57.6062 45C57.6062 69.85 79.4313 90 106.352 90V69.55C91.6654 69.55 79.7617 58.56 79.7617 45.01C79.7617 31.46 91.6654 20.47 106.352 20.47V20.46Z"
        fill="#18181B" />
      <path
        d="M22.1555 52.47V26.59C22.1555 23.2 25.1289 20.45 28.8031 20.45C32.4773 20.45 35.4507 23.2 35.4507 26.59H57.6062C57.6062 11.9 44.7114 0 28.8031 0C12.8948 0 0 11.9 0 26.59C0 33.73 3.05351 40.22 8.01922 45C11.7936 48.63 16.6692 51.27 22.1555 52.47Z"
        fill="#18181B" />
      <path
        d="M35.4507 37.53V63.41C35.4507 66.8 32.4773 69.55 28.8031 69.55C25.1289 69.55 22.1555 66.8 22.1555 63.41H0C0 78.09 12.8948 90 28.8031 90C44.7114 90 57.6062 78.1 57.6062 63.41C57.6062 56.26 54.5527 49.78 49.587 45C45.8127 41.37 40.9371 38.73 35.4507 37.53Z"
        fill="#2276D6" />
      <path
        d="M122.1 5.06V0H155.018V5.06C152.575 10.73 149.011 16.14 144.306 21.29C149.562 26.09 154.598 30.95 159.403 35.85L155.589 39.55C150.573 34.44 145.577 29.58 140.592 24.99C134.495 30.7 127.637 35.39 120.008 39.08L117.555 34.59C124.944 30.83 131.311 26.42 136.677 21.36C142.043 16.3 146.138 10.86 148.951 5.05H122.09L122.1 5.06Z"
        fill="#18181B" />
      <path
        d="M169.905 5.38001V0.26001H211.603V5.38001C210.212 10.01 207.729 14.3 204.155 18.27C200.581 22.24 196.095 25.63 190.699 28.45C191.39 29.46 193.502 32.59 197.016 37.84L192.161 40.87C186.484 32.35 181.168 24.78 176.223 18.17L180.928 14.99C184.062 19.2 186.224 22.14 187.405 23.81C191.69 21.69 195.495 18.95 198.819 15.59C202.142 12.23 204.415 8.83001 205.636 5.39001H169.895L169.905 5.38001Z"
        fill="#18181B" />
      <path d="M221.635 21.76V16.28H264.484V21.76H221.635Z" fill="#18181B" />
      <path
        d="M281.724 0.26001H287.471V14.18C296.911 16.44 306.522 19.38 316.314 23L314.532 28.22C305.371 24.81 296.351 22.01 287.471 19.82V41.05H281.724V0.26001Z"
        fill="#18181B" />
      <path
        d="M156.7 89.22C155.519 89.22 152.976 89.13 149.071 88.96L148.861 84.16C151.754 84.33 153.617 84.42 154.448 84.42C155.459 84.42 156.059 84.29 156.25 84.03C156.44 83.77 156.54 82.98 156.54 81.66V73.67H146.669C145.898 79.86 143.775 85.17 140.291 89.59L136.217 86.51C137.058 85.36 137.788 84.21 138.409 83.07H130.68V90.01H125.194V83.07H116.154V78.69H125.194V75.04H116.995V55.42H125.194V51.77H116.154V47.39H125.194V42.54H130.68V47.39H139.671V51.77H130.68V55.42H139.14V75.04H130.68V78.69H138.94V82.08C140.051 79.82 140.832 77.23 141.262 74.3C141.693 71.38 141.913 67.57 141.913 62.87V44.08H161.926V81.66C161.926 85.17 161.676 87.31 161.165 88.08C160.665 88.85 159.173 89.23 156.7 89.23V89.22ZM122.211 63.13H134.224V59.48H122.211V63.13ZM122.211 67.04V70.95H134.224V67.04H122.211ZM147.129 60.93V65.11C147.129 66.05 147.089 67.39 147.029 69.13H156.54V60.94H147.139L147.129 60.93ZM147.129 56.34H156.53V48.77H147.129V56.34Z"
        fill="#18181B" />
      <path
        d="M183.301 50.7H191.14V55.71C189.748 58.81 187.846 61.82 185.443 64.74C188.226 67.24 191.26 70.17 194.534 73.51L190.719 77.22C188.206 74.58 185.683 72.09 183.141 69.76V89.75H177.654V71.75C175.251 73.8 172.548 75.61 169.555 77.18L168.243 71.65C176.293 67.47 181.989 62.17 185.333 55.73H169.705V50.72H177.905V42.79H183.291V50.72L183.301 50.7ZM205.977 84.26C207.088 84.26 208.169 84.21 209.221 84.1C210.542 83.96 211.323 83.33 211.573 82.19C211.813 81.06 212.044 77.22 212.254 70.68L217.48 71.2C217.38 74.16 217.28 76.49 217.19 78.19C217.1 79.89 216.939 81.47 216.689 82.91C216.449 84.35 216.219 85.39 216.008 86.02C215.798 86.65 215.418 87.19 214.857 87.66C214.296 88.13 213.756 88.43 213.235 88.57C212.715 88.71 211.934 88.83 210.882 88.94C209.521 89.11 207.889 89.2 205.967 89.2C204.745 89.2 203.124 89.13 201.111 88.99C198.738 88.82 197.247 88.3 196.616 87.45C195.985 86.6 195.675 84.57 195.675 81.37V43.53H201.161V80.58C201.161 82.22 201.231 83.18 201.371 83.48C201.512 83.78 201.982 83.98 202.783 84.08C203.794 84.18 204.855 84.24 205.967 84.24L205.977 84.26Z"
        fill="#18181B" />
    </g>
  </g>
  <defs>
    <clipPath id="clip0_161_3182">
      <rect width="316.364" height="90" fill="white" />
    </clipPath>
  </defs>
</svg>
