<svg width="394" height="90" viewBox="0 0 394 90" fill="none" xmlns="http://www.w3.org/2000/svg">
  <g clip-path="url(#clip0_161_3181)">
    <mask id="mask0_161_3181" style="mask-type:luminance" maskUnits="userSpaceOnUse" x="0" y="0" width="394"
      height="90">
      <path d="M393.462 0H0V90H393.462V0Z" fill="white" />
    </mask>
    <g mask="url(#mask0_161_3181)">
      <path
        d="M106.306 20.46V0C79.3969 0 57.5813 20.15 57.5813 45C57.5813 69.85 79.3969 90 106.306 90V69.55C91.6257 69.55 79.7271 58.56 79.7271 45.01C79.7271 31.46 91.6257 20.47 106.306 20.47V20.46Z"
        fill="#18181B" />
      <path
        d="M22.1458 52.47V26.59C22.1458 23.2 25.118 20.45 28.7906 20.45C32.4632 20.45 35.4354 23.2 35.4354 26.59H57.5812C57.5812 11.9 44.692 0 28.7906 0C12.8892 0 0 11.9 0 26.59C0 33.73 3.05218 40.22 8.01574 45C11.7884 48.63 16.6619 51.27 22.1458 52.47Z"
        fill="#18181B" />
      <path
        d="M35.4354 37.5298V63.4098C35.4354 66.7998 32.4632 69.5498 28.7906 69.5498C25.118 69.5498 22.1458 66.7998 22.1458 63.4098H0C0 78.0898 12.8892 89.9998 28.7906 89.9998C44.692 89.9998 57.5812 78.0998 57.5812 63.4098C57.5812 56.2598 54.529 49.7798 49.5655 44.9998C45.7928 41.3698 40.9193 38.7298 35.4354 37.5298Z"
        fill="#2276D6" />
      <path
        d="M113.581 36.25L116.533 32.58C120.026 36.07 124.309 38.54 130.093 38.54C136.478 38.54 139.73 35.05 139.73 31.31C139.73 26.91 135.817 25.17 128.582 23.48C120.266 21.55 115.022 18.96 115.022 11.8C115.022 5.18 120.927 0 128.882 0C135.027 0 139.61 2.41 143.403 5.9L140.511 9.57C137.078 6.26 132.975 4.27 128.642 4.27C123.518 4.27 119.786 7.64 119.786 11.44C119.786 15.72 123.879 17.22 130.934 18.91C138.829 20.78 144.493 23.61 144.493 30.89C144.493 37.45 139.55 42.81 129.913 42.81C123.108 42.81 117.744 40.34 113.581 36.25Z"
        fill="#18181B" />
      <path
        d="M150.558 0.779785H155.261L170.632 29.6198L185.993 0.779785H190.696V42.1498H185.993V10.8998L170.632 39.7398L155.261 10.8998V42.1498H150.558V0.779785Z"
        fill="#18181B" />
      <path
        d="M227.182 32.7598H204.106L199.953 42.1498H194.829L213.082 0.779785H218.206L236.469 42.1498H231.345L227.193 32.7598H227.182ZM225.251 28.2998L215.674 6.55978L206.037 28.2998H225.261H225.251Z"
        fill="#18181B" />
      <path
        d="M260.476 27.1598L271.024 42.1498H265.66L255.173 27.2798H246.016V42.1498H241.313V0.779785H258.125C266.681 0.779785 273.376 6.25979 273.376 14.0298C273.376 21.0798 267.892 26.2498 260.476 27.1598ZM246.016 22.8198H257.284C264.029 22.8198 268.612 19.5698 268.612 14.0298C268.612 8.48979 264.029 5.23979 257.284 5.23979H246.016V22.8198Z"
        fill="#18181B" />
      <path d="M289.627 5.23979H275.707V0.779785H308.251V5.23979H294.331V42.1498H289.627V5.23979Z" fill="#18181B" />
      <path
        d="M113.942 68.5602C113.942 56.9402 123.709 47.1802 135.157 47.1802C140.881 47.1802 146.185 49.5902 150.037 53.5002L146.845 56.7502C143.833 53.5602 139.67 51.5102 135.157 51.5102C126.24 51.5102 118.705 59.3402 118.705 68.5502C118.705 77.7602 126.24 85.6502 135.157 85.6502C139.68 85.6502 143.833 83.6002 146.845 80.4102L150.037 83.6602C146.185 87.5102 140.881 89.9802 135.157 89.9802C123.709 89.9802 113.942 80.1602 113.942 68.5402V68.5602Z"
        fill="#18181B" />
      <path
        d="M188.895 47.9102V89.2802H184.192V70.4302H159.784V89.2802H155.081V47.9102H159.784V65.9802H184.192V47.9102H188.895Z"
        fill="#18181B" />
      <path
        d="M194.459 68.5602C194.459 56.9402 204.216 47.1802 215.674 47.1802C227.133 47.1802 236.83 56.9402 236.83 68.5602C236.83 80.1802 227.193 90.0002 215.674 90.0002C204.156 90.0002 194.459 80.1802 194.459 68.5602ZM232.056 68.5602C232.056 59.3502 224.581 51.5202 215.664 51.5202C206.748 51.5202 199.213 59.3502 199.213 68.5602C199.213 77.7702 206.748 85.6602 215.664 85.6602C224.581 85.6602 232.056 77.8302 232.056 68.5602Z"
        fill="#18181B" />
      <path
        d="M241.313 72.1202V47.9102H246.016V72.1202C246.016 80.0702 251.26 85.7302 258.605 85.7302C265.95 85.7302 271.204 80.0702 271.204 72.1202V47.9102H275.907V72.1202C275.907 82.6002 268.732 90.0002 258.615 90.0002C248.498 90.0002 241.323 82.5902 241.323 72.1202H241.313Z"
        fill="#18181B" />
      <path
        d="M302.877 74.2799L313.424 89.2699H308.06L297.573 74.3999H288.416V89.2699H283.713V47.8999H300.525C309.081 47.8999 315.776 53.3799 315.776 61.1499C315.776 68.1999 310.292 73.3699 302.877 74.2799ZM288.416 69.9399H299.684C306.429 69.9399 311.012 66.6899 311.012 61.1499C311.012 55.6099 306.429 52.3599 299.684 52.3599H288.416V69.9399Z"
        fill="#18181B" />
      <path
        d="M326.494 52.3699V65.9799H348.97V70.4399H326.494V84.8299H351.441V89.2899H321.73V47.9199H351.441V52.3799H326.494V52.3699Z"
        fill="#18181B" />
      <path
        d="M371.896 72.4202L355.204 47.9102H361.048L374.368 67.9602L387.807 47.9102H393.471L376.84 72.4202V89.2802H371.896V72.4202Z"
        fill="#18181B" />
    </g>
  </g>
  <defs>
    <clipPath id="clip0_161_3181">
      <rect width="393.462" height="90" fill="white" />
    </clipPath>
  </defs>
</svg>
