<svg width="107" height="90" viewBox="0 0 107 90" fill="none" xmlns="http://www.w3.org/2000/svg">
  <g clip-path="url(#clip0_161_3181)">
    <mask id="mask0_161_3181" style="mask-type:luminance" maskUnits="userSpaceOnUse" x="0" y="0" width="107"
      height="90">
      <path d="M393.462 0H0V90H393.462V0Z" fill="white" />
    </mask>
    <g mask="url(#mask0_161_3181)">
      <path
        d="M106.306 20.46V0C79.3969 0 57.5813 20.15 57.5813 45C57.5813 69.85 79.3969 90 106.306 90V69.55C91.6257 69.55 79.7271 58.56 79.7271 45.01C79.7271 31.46 91.6257 20.47 106.306 20.47V20.46Z"
        fill="#18181B" />
      <path
        d="M22.1458 52.47V26.59C22.1458 23.2 25.118 20.45 28.7906 20.45C32.4632 20.45 35.4354 23.2 35.4354 26.59H57.5812C57.5812 11.9 44.692 0 28.7906 0C12.8892 0 0 11.9 0 26.59C0 33.73 3.05218 40.22 8.01574 45C11.7884 48.63 16.6619 51.27 22.1458 52.47Z"
        fill="#18181B" />
      <path
        d="M35.4354 37.5298V63.4098C35.4354 66.7998 32.4632 69.5498 28.7906 69.5498C25.118 69.5498 22.1458 66.7998 22.1458 63.4098H0C0 78.0898 12.8892 89.9998 28.7906 89.9998C44.692 89.9998 57.5812 78.0998 57.5812 63.4098C57.5812 56.2598 54.529 49.7798 49.5655 44.9998C45.7928 41.3698 40.9193 38.7298 35.4354 37.5298Z"
        fill="#2276D6" />
    </g>
  </g>
  <defs>
    <clipPath id="clip0_161_3181">
      <rect width="106.3" height="90" fill="white" />
    </clipPath>
  </defs>
</svg>
